# xmcd CD database file
#
# Track frame offsets:
#	150
#	21479
#	37080
#	52079
#	60818
#	72329
#	78029
#	104880
#	125805
#
# Disc length: 1807 seconds
#
# Revision: 0
# Processed by: cddbd v1.4PL0 Copyright (c) Steve Scherf et al.
# Submitted via: CDex 1.51
#
DISCID=81070d09
DTITLE=Boston Saxophone Quartet - Festive Notes
DYEAR=1993
DGENRE=Jazz
TTITLE0=Thomas J. McGah - Festive Notes (A Fantasy for Saxophone Quartet)
TTITLE1=J. S. Bach arr. Leonard - Fugue in G Minor
TTITLE2=Luis Milan arr. Leonard - Three Pavanes
TTITLE3=Orlando DiLasso arr. Leonard - My Heart Doth Beg
TTITLE4=J. S. Bach arr. Leonard - Art of the Fugue IV
TTITLE5=George Gershwin arr. Leonard - Do Do Do
TTITLE6=George Gershwin arr. Marvuglio - Gershwin Medley
TTITLE7=Francis Poulenc arr. Young - Suite Francaise
TTITLE8=Paul Wagner - Suite for Saxophone Quartet No. 2, movement 3
EXTD=YEAR: 1993
EXTT0=
EXTT1=
EXTT2=
EXTT3=
EXTT4=
EXTT5=
EXTT6=
EXTT7=
EXTT8=
PLAYORDER=
